<?xml version="1.0" encoding="UTF-8"?>
<svg data-slug-id="azure-arc" viewBox="0 0 36 36" xmlns="http://www.w3.org/2000/svg">
<path d="m14.377 10.495-6.4368 3.7429-6.4404-3.7447 6.4404-3.7429 6.4368 3.7447z" fill="#5EA0EF"/>
<path d="m14.378 27.332-6.4386-3.7177v7.4606l6.4386-3.7429z" fill="#005BA1"/>
<path d="m7.9404 14.238-0.00181-0.0018v0.0018l-6.4386-3.7447v16.851l6.4386 3.7429 6.4386-3.7429v-0.0127l-6.4386 3.7429v-7.4605l6.4386 3.7176v-16.837l-6.4368 3.7429z" fill="#0078D4"/>
<path d="m21.123 10.495 6.4369 3.7429 6.4404-3.7447-6.4404-3.7429-6.4369 3.7447z" fill="#9CEBFF"/>
<path d="m21.123 27.332 6.4387-3.7177v7.4606l-6.4387-3.7429z" fill="#32BEDD"/>
<path d="m27.56 14.225h0.0018v9.3762l-6.4387 3.7303v-16.849l6.4369 3.7429z" fill="url(#a)"/>
<path d="m21.123 10.495 6.4369 3.7429 6.4404-3.7447-6.4404-3.7429-6.4369 3.7447z" fill="#9CEBFF"/>
<path d="m27.56 14.238-6.4369-3.7429v16.837l6.4387-3.7176v7.4605l-6.4387-3.7429v0.0127l6.4387 3.7429 6.4386-3.7429v-16.851l-6.4404 3.7447z" fill="#50E6FF"/>
<path d="m21.123 27.332 6.4387-3.7177v7.4606l-6.4387-3.7429z" fill="#32BEDD"/>
<path d="m27.56 14.225h0.0018v9.3762l-6.4387 3.7303v-16.849l6.4369 3.7429z" fill="url(#a)"/>
<path d="m7.9413 14.236h-0.00181v9.3763l6.4386 3.7321v-16.85l-6.4368 3.7411z" fill="url(#b)"/>
<path d="m27.541 20.709c-1.1267 2.8095-5.5358 4.6656-9.6561 4.6656h-0.2907c-4.1203 0-8.5295-1.8561-9.6561-4.6656 0 0-0.04513-2.8184 0-3.0929 0.81973 3.1363 5.1169 5.4564 9.5568 5.4564h0.4893c4.4326 0 8.7371-2.3201 9.5568-5.4564 0.0451 0.2745 0 3.0929 0 3.0929zm-1.8471-7.5544c-2.1809 1.7591-4.9081 2.7006-7.7097 2.6614h-0.4893c-2.7989 0.0395-5.5237-0.8992-7.7043-2.6542l-1.5456 0.9028c1.4751 2.461 5.5322 4.0517 9.3492 4.0517h0.2907c3.8187 0 7.883-1.5943 9.3546-4.0643l-1.5456-0.8974z" fill="url(#c)"/>
<defs>
<linearGradient id="a" x1="27.562" x2="21.123" y1="18.907" y2="18.907" gradientUnits="userSpaceOnUse">
<stop stop-color="#32BEDD" offset="0"/>
<stop stop-color="#9CEBFF" stop-opacity=".5" offset=".998"/>
</linearGradient>
<linearGradient id="b" x1="7.9413" x2="14.38" y1="18.919" y2="18.919" gradientUnits="userSpaceOnUse">
<stop stop-color="#005BA1" offset="0"/>
<stop stop-color="#005BA1" stop-opacity="0" offset=".998"/>
</linearGradient>
<linearGradient id="c" x1="7.9184" x2="27.561" y1="19.264" y2="19.264" gradientUnits="userSpaceOnUse">
<stop stop-color="#005BA1" offset="0"/>
<stop stop-color="#32BEDD" offset=".974"/>
</linearGradient>
</defs>
</svg>
