<svg width="24" height="24" viewBox="0 0 24 24" fill="none" xmlns="http://www.w3.org/2000/svg">
<g clip-path="url(#clip0_1205_1378)">
<path d="M3.93865 7.02159C3.90778 7.02177 3.87719 7.01582 3.84864 7.00409C3.82009 6.99236 3.79415 6.97508 3.77232 6.95325C3.75049 6.93143 3.73322 6.90549 3.72149 6.87693C3.70975 6.84838 3.70381 6.81779 3.70398 6.78692V6.78692C3.70292 6.07682 3.42037 5.39611 2.91825 4.89399C2.41613 4.39187 1.73542 4.10931 1.02532 4.10826C0.963309 4.10826 0.903822 4.08372 0.859851 4.04C0.815881 3.99628 0.791002 3.93693 0.790649 3.87492V3.87492C0.790649 3.81269 0.815373 3.753 0.859382 3.70899C0.90339 3.66498 0.963079 3.64026 1.02532 3.64026C1.73565 3.6392 2.41656 3.35646 2.91872 2.85405C3.42088 2.35165 3.70328 1.67059 3.70398 0.960256C3.70381 0.92939 3.70975 0.898795 3.72149 0.870245C3.73322 0.841694 3.75049 0.815754 3.77232 0.793928C3.79415 0.772102 3.82009 0.754823 3.84864 0.743092C3.87719 0.731362 3.90778 0.725413 3.93865 0.72559C3.96952 0.725413 4.00011 0.731362 4.02866 0.743092C4.05721 0.754823 4.08315 0.772102 4.10498 0.793928C4.1268 0.815754 4.14408 0.841694 4.15581 0.870245C4.16754 0.898795 4.17349 0.92939 4.17332 0.960256V0.960256C4.17437 1.67036 4.45693 2.35107 4.95905 2.85319C5.46117 3.35531 6.14188 3.63787 6.85198 3.63892C6.88285 3.63875 6.91344 3.6447 6.94199 3.65643C6.97055 3.66816 6.99649 3.68544 7.01831 3.70726C7.04014 3.72909 7.05742 3.75503 7.06915 3.78358C7.08088 3.81213 7.08683 3.84272 7.08665 3.87359C7.08683 3.90446 7.08088 3.93505 7.06915 3.9636C7.05742 3.99215 7.04014 4.01809 7.01831 4.03992C6.99649 4.06174 6.97055 4.07902 6.94199 4.09075C6.91344 4.10248 6.88285 4.10843 6.85198 4.10826V4.10826C6.14177 4.10896 5.46085 4.39141 4.95866 4.8936C4.45646 5.39579 4.17402 6.07671 4.17332 6.78692C4.17297 6.84905 4.14813 6.90854 4.1042 6.95247C4.06026 6.9964 4.00078 7.02124 3.93865 7.02159Z" fill="#50E6FF"/>
<path d="M20.8147 23.2743C20.7648 23.2743 20.717 23.2545 20.6818 23.2192C20.6465 23.184 20.6267 23.1361 20.6267 23.0863C20.626 22.5182 20.4 21.9736 19.9983 21.572C19.5967 21.1703 19.0521 20.9443 18.484 20.9436C18.4344 20.9436 18.3868 20.924 18.3516 20.889C18.3163 20.8541 18.2964 20.8066 18.296 20.7569V20.7569C18.296 20.7071 18.3158 20.6593 18.3511 20.624C18.3863 20.5888 18.4342 20.5689 18.484 20.5689V20.5689C19.0522 20.5686 19.597 20.3427 19.9987 19.941C20.4005 19.5392 20.6263 18.9944 20.6267 18.4263C20.6267 18.3764 20.6465 18.3286 20.6818 18.2933C20.717 18.2581 20.7648 18.2383 20.8147 18.2383V18.2383C20.8645 18.2383 20.9124 18.2581 20.9476 18.2933C20.9829 18.3286 21.0027 18.3764 21.0027 18.4263V18.4263C21.003 18.9944 21.2289 19.5392 21.6307 19.941C22.0324 20.3427 22.5772 20.5686 23.1454 20.5689C23.1952 20.5689 23.243 20.5888 23.2783 20.624C23.3135 20.6593 23.3334 20.7071 23.3334 20.7569C23.3334 20.8068 23.3135 20.8546 23.2783 20.8899C23.243 20.9251 23.1952 20.9449 23.1454 20.9449V20.9449C22.5773 20.9457 22.0327 21.1716 21.631 21.5733C21.2294 21.975 21.0034 22.5196 21.0027 23.0876C21.0023 23.1372 20.9824 23.1847 20.9472 23.2197C20.9119 23.2547 20.8643 23.2743 20.8147 23.2743V23.2743Z" fill="#50E6FF"/>
<path d="M19.9586 10.0411C20.3347 11.6152 20.2355 13.2654 19.6737 14.7831C19.1119 16.3009 18.1126 17.6179 16.8022 18.5677C15.4919 19.5175 13.9293 20.0574 12.3121 20.1192C10.6949 20.1809 9.09569 19.7617 7.71673 18.9146C6.33778 18.0674 5.241 16.8304 4.56509 15.3599C3.88917 13.8894 3.66449 12.2516 3.91944 10.6534C4.1744 9.05521 4.89754 7.56854 5.99743 6.38135C7.09731 5.19416 8.52454 4.35979 10.0986 3.98375C12.2094 3.47949 14.434 3.83439 16.2831 4.97036C18.1322 6.10632 19.4544 7.93032 19.9586 10.0411V10.0411Z" fill="url(#paint0_radial_1205_1378)"/>
<path d="M7.61196 17.4876C7.9032 17.4953 8.19303 17.4445 8.46437 17.3385C8.73571 17.2324 8.98308 17.0731 9.19193 16.87C9.40077 16.6668 9.56686 16.424 9.68042 16.1557C9.79398 15.8874 9.85271 15.5991 9.85315 15.3077C9.8536 15.0164 9.79575 14.7279 9.68301 14.4593C9.57027 14.1906 9.40492 13.9472 9.1967 13.7435C8.98848 13.5397 8.74159 13.3796 8.47058 13.2727C8.19956 13.1658 7.90989 13.1142 7.61863 13.121C7.62508 13.059 7.6282 12.9966 7.62797 12.9343C7.62268 12.3516 7.38659 11.7948 6.97145 11.3859C6.55631 10.977 5.99598 10.7494 5.4133 10.753H3.77596C3.61579 11.9628 3.72323 13.193 4.09071 14.3567C4.45818 15.5204 5.07673 16.5892 5.90263 17.4876H7.61196Z" fill="#F2F2F2"/>
<path d="M20.0598 10.4216C20.0598 10.4016 20.0598 10.3816 20.0505 10.363C19.7868 8.93618 19.1386 7.60847 18.1758 6.52295C18.0509 6.47235 17.9221 6.43221 17.7905 6.40295C17.4402 6.30299 17.0717 6.28383 16.7128 6.34693C16.354 6.41002 16.0142 6.55372 15.7189 6.76719C15.4237 6.98067 15.1807 7.25836 15.0084 7.57935C14.836 7.90033 14.7387 8.25625 14.7238 8.62029C14.6353 8.61006 14.5463 8.60427 14.4572 8.60295C13.9111 8.60291 13.3825 8.79586 12.9648 9.14772C12.5472 9.49958 12.2673 9.98772 12.1746 10.5259C12.0819 11.0641 12.1824 11.6178 12.4583 12.0891C12.7342 12.5604 13.1678 12.919 13.6825 13.1016C13.9123 13.1917 14.1571 13.2369 14.4038 13.235H17.1105C18.1973 12.4123 19.1868 11.4684 20.0598 10.4216Z" fill="#F2F2F2"/>
<path d="M22.9213 5.10946C22.0826 3.71346 20.1213 3.16946 17.3813 3.57746C16.4425 3.7105 15.5147 3.91193 14.6053 4.18012C15.3267 4.42918 16.0118 4.77309 16.6426 5.20279C16.9639 5.13212 17.2866 5.04812 17.5959 5.00146C18.0826 4.92569 18.5741 4.88603 19.0666 4.88279C19.548 4.81338 20.0392 4.86547 20.4954 5.0343C20.9516 5.20313 21.3583 5.48334 21.6786 5.84946V5.84946C22.1893 6.70012 21.7586 8.15479 20.4973 9.84946C18.7443 12.0314 16.5962 13.8637 14.1653 15.2508C11.7888 16.734 9.15455 17.7571 6.39993 18.2668C4.31459 18.5788 2.82393 18.2668 2.31326 17.4188C1.80259 16.5708 2.23326 15.1121 3.49459 13.4255C3.65059 13.2161 3.68926 13.1135 3.86659 12.9028C3.78325 12.1799 3.7949 11.4493 3.90126 10.7295C3.33439 11.2977 2.8128 11.9093 2.34126 12.5588C0.68926 14.7681 0.24126 16.7548 1.07859 18.1508C1.52092 18.7426 2.11086 19.2078 2.78942 19.5001C3.46798 19.7923 4.21137 19.9013 4.94526 19.8161C5.5038 19.8132 6.06134 19.7686 6.61326 19.6828C9.55363 19.1461 12.3666 18.0605 14.9053 16.4828C17.4979 14.9991 19.7873 13.0395 21.6533 10.7068C23.3106 8.49212 23.7586 6.50679 22.9213 5.10946Z" fill="#50E6FF"/>
</g>
<defs>
<radialGradient id="paint0_radial_1205_1378" cx="0" cy="0" r="1" gradientUnits="userSpaceOnUse" gradientTransform="translate(11.937 11.9397) scale(8.22446 8.15301)">
<stop offset="0.183" stop-color="#5EA0EF"/>
<stop offset="1" stop-color="#0078D4"/>
</radialGradient>
<clipPath id="clip0_1205_1378">
<rect width="24" height="24" fill="white"/>
</clipPath>
</defs>
</svg>
